<?xml version="1.0" standalone="no"?>
<!DOCTYPE svg PUBLIC "-//W3C//DTD SVG 20010904//EN"
 "http://www.w3.org/TR/2001/REC-SVG-20010904/DTD/svg10.dtd">
<svg version="1.0" xmlns="http://www.w3.org/2000/svg"
 width="360.000000pt" height="360.000000pt" viewBox="0 0 360.000000 360.000000"
 preserveAspectRatio="xMidYMid meet">

<g transform="translate(0.000000,360.000000) scale(0.100000,-0.100000)"
fill="#000000" stroke="none">
<path d="M1653 3589 c-704 -54 -1318 -533 -1551 -1211 -170 -490 -113 -1047
152 -1492 171 -288 447 -543 752 -695 538 -268 1192 -244 1708 63 288 171 543
447 695 752 268 538 244 1192 -63 1708 -79 132 -179 257 -305 379 -304 293
-687 464 -1111 497 -137 10 -131 11 -277 -1z m274 -733 c27 -23 28 -29 33
-134 l5 -111 44 -31 c73 -53 210 -190 274 -275 123 -164 163 -308 121 -441
-25 -79 -98 -188 -195 -289 l-82 -85 -83 0 -84 0 0 -95 0 -95 126 0 c72 0 135
5 147 11 12 6 54 43 93 81 l71 69 273 80 c151 43 282 79 292 79 16 0 18 -9 18
-73 l0 -74 -42 -19 c-24 -10 -69 -37 -101 -58 -52 -34 -72 -59 -172 -210 -115
-175 -170 -237 -247 -278 l-43 -23 -544 -3 c-518 -3 -548 -2 -624 18 -168 42
-310 157 -386 311 -43 88 -74 208 -69 268 l3 36 277 3 278 2 4 -22 c3 -13 7
-40 10 -61 6 -48 44 -99 89 -121 28 -13 67 -16 186 -16 l151 0 0 95 0 95 -135
0 c-157 0 -156 -1 -96 88 61 91 119 203 146 282 60 177 14 435 -135 747 -32
67 -56 124 -53 126 2 3 61 -10 131 -29 70 -19 130 -34 135 -34 4 0 7 30 7 68
1 37 7 78 14 91 30 54 115 68 163 27z m-487 -483 c55 -152 73 -231 73 -333 1
-103 -7 -129 -82 -268 l-34 -62 -256 2 c-227 3 -256 5 -255 19 1 14 178 296
422 674 64 99 64 99 82 77 10 -12 32 -61 50 -109z"/>
</g>
</svg>
